# xmcd
#
# Track frame offsets:
#	150
#	17925
#	29888
#	49350
#	64650
#	79275
#	100500
#	115875
#	131925
#	148725
#	161625
#	174975
#
# Disc length: 2539 seconds
#
# Revision: 2
# Processed by: cddbd v1.5.1PL0 Copyright (c) Steve Scherf et al.
# Submitted via: audiograbber 1.82.02
#
DISCID=ae09e90c
DTITLE=Vol 21 - NuTech Karaoke vol 21
DYEAR=2003
DGENRE=Karaoke CD+G
TTITLE0=Brooks and Dunn - She Used To Be Mine
TTITLE1=Martina McBride - My Baby Loves Me
TTITLE2=Steve Wariner - Drivin and Cryin
TTITLE3=Neal McCoy - No Doubt About It
TTITLE4=Shawn Camp - Confessin My Love
TTITLE5=Travis Tritt - Worth Every Mile
TTITLE6=Ricky Van Shelton - Where Was I
TTITLE7=Chris LeDoux - For Your Love
TTITLE8=The Mavericks - What a Cryin Shame
TTITLE9=Dennis Robbins - Mona Lisa On Cruise Control
TTITLE10=Tim McGraw - Indian Outlaw
TTITLE11=Sawyer Brown - The Boys and Me
EXTD=
EXTT0=
EXTT1=
EXTT2=
EXTT3=
EXTT4=
EXTT5=
EXTT6=
EXTT7=
EXTT8=
EXTT9=
EXTT10=
EXTT11=
PLAYORDER=
